<svg width="38" height="37" viewBox="0 0 38 37" fill="none" xmlns="http://www.w3.org/2000/svg">
<path d="M25.1668 19.8875V26.3625C25.1668 31.7583 23.0085 33.9166 17.6127 33.9166H11.1377C5.74183 33.9166 3.5835 31.7583 3.5835 26.3625V19.8875C3.5835 14.4916 5.74183 12.3333 11.1377 12.3333H17.6127C23.0085 12.3333 25.1668 14.4916 25.1668 19.8875Z" stroke="#3A3A3A" stroke-width="1.5" stroke-linecap="round" stroke-linejoin="round"/>
<path d="M34.4168 10.6375V17.1125C34.4168 22.5083 32.2585 24.6666 26.8627 24.6666H25.1668V19.8875C25.1668 14.4916 23.0085 12.3333 17.6127 12.3333H12.8335V10.6375C12.8335 5.24165 14.9918 3.08331 20.3877 3.08331H26.8627C32.2585 3.08331 34.4168 5.24165 34.4168 10.6375Z" stroke="#3A3A3A" stroke-width="1.5" stroke-linecap="round" stroke-linejoin="round"/>
</svg>
