<svg width="39" height="39" viewBox="0 0 39 39" fill="none" xmlns="http://www.w3.org/2000/svg">
<path d="M29.2175 17.5338V24.0338C29.2175 24.4563 29.2013 24.8625 29.1525 25.2525C28.7788 29.64 26.195 31.8175 21.4338 31.8175H20.7838C20.3775 31.8175 19.9875 32.0125 19.7437 32.3375L17.7938 34.9375C16.9325 36.0912 15.535 36.0912 14.6737 34.9375L12.7237 32.3375C12.5125 32.0612 12.0413 31.8175 11.6838 31.8175H11.0338C5.85001 31.8175 3.25 30.5338 3.25 24.0338V17.5338C3.25 12.7725 5.44376 10.1888 9.81501 9.81501C10.205 9.76626 10.6113 9.75 11.0338 9.75H21.4338C26.6175 9.75 29.2175 12.35 29.2175 17.5338Z" stroke="#3A3A3A" stroke-width="1.5" stroke-miterlimit="10" stroke-linecap="round" stroke-linejoin="round"/>
<path d="M35.7174 11.0338V17.5338C35.7174 22.3113 33.5237 24.8788 29.1524 25.2525C29.2012 24.8625 29.2174 24.4563 29.2174 24.0338V17.5338C29.2174 12.35 26.6174 9.75 21.4337 9.75H11.0337C10.6112 9.75 10.2049 9.76626 9.81494 9.81501C10.1887 5.44376 12.7724 3.25 17.5337 3.25H27.9337C33.1174 3.25 35.7174 5.85001 35.7174 11.0338Z" stroke="#3A3A3A" stroke-width="1.5" stroke-miterlimit="10" stroke-linecap="round" stroke-linejoin="round"/>
<path d="M21.9302 21.5312H21.9448" stroke="#3A3A3A" stroke-width="2" stroke-linecap="round" stroke-linejoin="round"/>
<path d="M16.2427 21.5312H16.2573" stroke="#3A3A3A" stroke-width="2" stroke-linecap="round" stroke-linejoin="round"/>
<path d="M10.5552 21.5312H10.5698" stroke="#3A3A3A" stroke-width="2" stroke-linecap="round" stroke-linejoin="round"/>
</svg>
