<svg width="18" height="23" viewBox="0 0 18 23" fill="none" xmlns="http://www.w3.org/2000/svg">
<path fill-rule="evenodd" clip-rule="evenodd" d="M3 0.0917969C1.34315 0.0917969 0 1.43494 0 3.0918V19.0918C0 20.7486 1.34315 22.0918 3 22.0918H15C16.6569 22.0918 18 20.7487 18 19.0918V7.92022C18 7.12458 17.6839 6.36151 17.1213 5.7989L12.2929 0.970477C11.7303 0.407868 10.9672 0.0917969 10.1716 0.0917969H3ZM2 3.0918C2 2.53951 2.44772 2.0918 3 2.0918H9V7.0918C9 8.19637 9.89543 9.0918 11 9.0918H16V19.0918C16 19.6441 15.5523 20.0918 15 20.0918H3C2.44772 20.0918 2 19.6441 2 19.0918V3.0918ZM15.5858 7.0918L11 2.50601V7.0918H15.5858Z" fill="white"/>
<path fill-rule="evenodd" clip-rule="evenodd" d="M7.60477 18.8929L3.20263 14.5719C2.93249 14.3068 2.93249 13.8768 3.20263 13.6117L7.60477 9.29067C7.8749 9.02551 8.31288 9.02551 8.58302 9.29067C8.85316 9.55583 8.85316 9.98573 8.58302 10.2509L5.36174 13.4128H10.6919C11.074 13.4128 11.3837 13.7168 11.3837 14.0918C11.3837 14.4668 11.074 14.7708 10.6919 14.7708H5.36174L8.58302 17.9327C8.85316 18.1979 8.85316 18.6278 8.58302 18.8929C8.31288 19.1581 7.8749 19.1581 7.60477 18.8929Z" fill="white"/>
</svg>
