<svg width="20" height="21" viewBox="0 0 20 21" fill="none" xmlns="http://www.w3.org/2000/svg">
<path fill-rule="evenodd" clip-rule="evenodd" d="M10 20.0918C15.5228 20.0918 20 15.6146 20 10.0918C20 4.56895 15.5228 0.0917969 10 0.0917969C4.47715 0.0917969 0 4.56895 0 10.0918C0 15.6146 4.47715 20.0918 10 20.0918ZM13.3334 8.00854L12.0834 6.75854L9.58341 9.25854L10.8334 10.5085L13.3334 8.00854ZM7.50008 13.8419L6.25008 12.5919L2.91675 9.25854L1.66675 10.5085L4.79175 13.6335L6.25008 15.0919L7.50008 13.8419ZM17.9167 8.00854L16.6667 6.75854L10.8334 12.5919L9.79175 11.5502L8.54175 10.3002L7.50008 9.25854L6.25008 10.5085L7.29175 11.5502L8.54175 12.8002L9.37508 13.6335L10.8334 15.0919L17.9167 8.00854Z" fill="white"/>
</svg>
