<svg width="246" height="246" viewBox="0 0 246 246" fill="none" xmlns="http://www.w3.org/2000/svg">
<rect width="246" height="246" fill="white"/>
<path d="M15.7441 15.744H24.3246V24.3245H15.7441V15.744ZM24.3246 15.744H32.9051V24.3245H24.3246V15.744ZM32.9051 15.744H41.4856V24.3245H32.9051V15.744ZM41.4856 15.744H50.0661V24.3245H41.4856V15.744ZM50.0661 15.744H58.6465V24.3245H50.0661V15.744ZM58.6465 15.744H67.227V24.3245H58.6465V15.744ZM67.227 15.744H75.8075V24.3245H67.227V15.744ZM84.388 15.744H92.9685V24.3245H84.388V15.744ZM118.71 15.744H127.29V24.3245H118.71V15.744ZM127.29 15.744H135.871V24.3245H127.29V15.744ZM135.871 15.744H144.451V24.3245H135.871V15.744ZM144.451 15.744H153.032V24.3245H144.451V15.744ZM170.193 15.744H178.773V24.3245H170.193V15.744ZM178.773 15.744H187.354V24.3245H178.773V15.744ZM187.354 15.744H195.934V24.3245H187.354V15.744ZM195.934 15.744H204.515V24.3245H195.934V15.744ZM204.515 15.744H213.095V24.3245H204.515V15.744ZM213.095 15.744H221.676V24.3245H213.095V15.744ZM221.676 15.744H230.256V24.3245H221.676V15.744ZM15.7441 24.3245H24.3246V32.905H15.7441V24.3245ZM67.227 24.3245H75.8075V32.905H67.227V24.3245ZM118.71 24.3245H127.29V32.905H118.71V24.3245ZM135.871 24.3245H144.451V32.905H135.871V24.3245ZM144.451 24.3245H153.032V32.905H144.451V24.3245ZM170.193 24.3245H178.773V32.905H170.193V24.3245ZM221.676 24.3245H230.256V32.905H221.676V24.3245ZM15.7441 32.905H24.3246V41.4855H15.7441V32.905ZM32.9051 32.905H41.4856V41.4855H32.9051V32.905ZM41.4856 32.905H50.0661V41.4855H41.4856V32.905ZM50.0661 32.905H58.6465V41.4855H50.0661V32.905ZM67.227 32.905H75.8075V41.4855H67.227V32.905ZM84.388 32.905H92.9685V41.4855H84.388V32.905ZM92.9685 32.905H101.549V41.4855H92.9685V32.905ZM110.129 32.905H118.71V41.4855H110.129V32.905ZM135.871 32.905H144.451V41.4855H135.871V32.905ZM144.451 32.905H153.032V41.4855H144.451V32.905ZM170.193 32.905H178.773V41.4855H170.193V32.905ZM187.354 32.905H195.934V41.4855H187.354V32.905ZM195.934 32.905H204.515V41.4855H195.934V32.905ZM204.515 32.905H213.095V41.4855H204.515V32.905ZM221.676 32.905H230.256V41.4855H221.676V32.905ZM15.7441 41.4855H24.3246V50.0659H15.7441V41.4855ZM32.9051 41.4855H41.4856V50.0659H32.9051V41.4855ZM41.4856 41.4855H50.0661V50.0659H41.4856V41.4855ZM50.0661 41.4855H58.6465V50.0659H50.0661V41.4855ZM67.227 41.4855H75.8075V50.0659H67.227V41.4855ZM84.388 41.4855H92.9685V50.0659H84.388V41.4855ZM92.9685 41.4855H101.549V50.0659H92.9685V41.4855ZM101.549 41.4855H110.129V50.0659H101.549V41.4855ZM127.29 41.4855H135.871V50.0659H127.29V41.4855ZM170.193 41.4855H178.773V50.0659H170.193V41.4855ZM187.354 41.4855H195.934V50.0659H187.354V41.4855ZM195.934 41.4855H204.515V50.0659H195.934V41.4855ZM204.515 41.4855H213.095V50.0659H204.515V41.4855ZM221.676 41.4855H230.256V50.0659H221.676V41.4855ZM15.7441 50.0659H24.3246V58.6464H15.7441V50.0659ZM32.9051 50.0659H41.4856V58.6464H32.9051V50.0659ZM41.4856 50.0659H50.0661V58.6464H41.4856V50.0659ZM50.0661 50.0659H58.6465V58.6464H50.0661V50.0659ZM67.227 50.0659H75.8075V58.6464H67.227V50.0659ZM92.9685 50.0659H101.549V58.6464H92.9685V50.0659ZM135.871 50.0659H144.451V58.6464H135.871V50.0659ZM144.451 50.0659H153.032V58.6464H144.451V50.0659ZM153.032 50.0659H161.612V58.6464H153.032V50.0659ZM170.193 50.0659H178.773V58.6464H170.193V50.0659ZM187.354 50.0659H195.934V58.6464H187.354V50.0659ZM195.934 50.0659H204.515V58.6464H195.934V50.0659ZM204.515 50.0659H213.095V58.6464H204.515V50.0659ZM221.676 50.0659H230.256V58.6464H221.676V50.0659ZM15.7441 58.6464H24.3246V67.2269H15.7441V58.6464ZM67.227 58.6464H75.8075V67.2269H67.227V58.6464ZM84.388 58.6464H92.9685V67.2269H84.388V58.6464ZM101.549 58.6464H110.129V67.2269H101.549V58.6464ZM110.129 58.6464H118.71V67.2269H110.129V58.6464ZM118.71 58.6464H127.29V67.2269H118.71V58.6464ZM144.451 58.6464H153.032V67.2269H144.451V58.6464ZM153.032 58.6464H161.612V67.2269H153.032V58.6464ZM170.193 58.6464H178.773V67.2269H170.193V58.6464ZM221.676 58.6464H230.256V67.2269H221.676V58.6464ZM15.7441 67.2269H24.3246V75.8074H15.7441V67.2269ZM24.3246 67.2269H32.9051V75.8074H24.3246V67.2269ZM32.9051 67.2269H41.4856V75.8074H32.9051V67.2269ZM41.4856 67.2269H50.0661V75.8074H41.4856V67.2269ZM50.0661 67.2269H58.6465V75.8074H50.0661V67.2269ZM58.6465 67.2269H67.227V75.8074H58.6465V67.2269ZM67.227 67.2269H75.8075V75.8074H67.227V67.2269ZM84.388 67.2269H92.9685V75.8074H84.388V67.2269ZM101.549 67.2269H110.129V75.8074H101.549V67.2269ZM118.71 67.2269H127.29V75.8074H118.71V67.2269ZM135.871 67.2269H144.451V75.8074H135.871V67.2269ZM153.032 67.2269H161.612V75.8074H153.032V67.2269ZM170.193 67.2269H178.773V75.8074H170.193V67.2269ZM178.773 67.2269H187.354V75.8074H178.773V67.2269ZM187.354 67.2269H195.934V75.8074H187.354V67.2269ZM195.934 67.2269H204.515V75.8074H195.934V67.2269ZM204.515 67.2269H213.095V75.8074H204.515V67.2269ZM213.095 67.2269H221.676V75.8074H213.095V67.2269ZM221.676 67.2269H230.256V75.8074H221.676V67.2269ZM84.388 75.8074H92.9685V84.3879H84.388V75.8074ZM127.29 75.8074H135.871V84.3879H127.29V75.8074ZM153.032 75.8074H161.612V84.3879H153.032V75.8074ZM24.3246 84.3879H32.9051V92.9683H24.3246V84.3879ZM41.4856 84.3879H50.0661V92.9683H41.4856V84.3879ZM58.6465 84.3879H67.227V92.9683H58.6465V84.3879ZM67.227 84.3879H75.8075V92.9683H67.227V84.3879ZM75.8075 84.3879H84.388V92.9683H75.8075V84.3879ZM84.388 84.3879H92.9685V92.9683H84.388V84.3879ZM101.549 84.3879H110.129V92.9683H101.549V84.3879ZM110.129 84.3879H118.71V92.9683H110.129V84.3879ZM135.871 84.3879H144.451V92.9683H135.871V84.3879ZM153.032 84.3879H161.612V92.9683H153.032V84.3879ZM161.612 84.3879H170.193V92.9683H161.612V84.3879ZM170.193 84.3879H178.773V92.9683H170.193V84.3879ZM178.773 84.3879H187.354V92.9683H178.773V84.3879ZM195.934 84.3879H204.515V92.9683H195.934V84.3879ZM204.515 84.3879H213.095V92.9683H204.515V84.3879ZM221.676 84.3879H230.256V92.9683H221.676V84.3879ZM15.7441 92.9683H24.3246V101.549H15.7441V92.9683ZM50.0661 92.9683H58.6465V101.549H50.0661V92.9683ZM75.8075 92.9683H84.388V101.549H75.8075V92.9683ZM84.388 92.9683H92.9685V101.549H84.388V92.9683ZM92.9685 92.9683H101.549V101.549H92.9685V92.9683ZM110.129 92.9683H118.71V101.549H110.129V92.9683ZM118.71 92.9683H127.29V101.549H118.71V92.9683ZM127.29 92.9683H135.871V101.549H127.29V92.9683ZM153.032 92.9683H161.612V101.549H153.032V92.9683ZM161.612 92.9683H170.193V101.549H161.612V92.9683ZM221.676 92.9683H230.256V101.549H221.676V92.9683ZM15.7441 101.549H24.3246V110.129H15.7441V101.549ZM24.3246 101.549H32.9051V110.129H24.3246V101.549ZM32.9051 101.549H41.4856V110.129H32.9051V101.549ZM58.6465 101.549H67.227V110.129H58.6465V101.549ZM67.227 101.549H75.8075V110.129H67.227V101.549ZM75.8075 101.549H84.388V110.129H75.8075V101.549ZM92.9685 101.549H101.549V110.129H92.9685V101.549ZM101.549 101.549H110.129V110.129H101.549V101.549ZM118.71 101.549H127.29V110.129H118.71V101.549ZM127.29 101.549H135.871V110.129H127.29V101.549ZM135.871 101.549H144.451V110.129H135.871V101.549ZM161.612 101.549H170.193V110.129H161.612V101.549ZM213.095 101.549H221.676V110.129H213.095V101.549ZM221.676 101.549H230.256V110.129H221.676V101.549ZM15.7441 110.129H24.3246V118.71H15.7441V110.129ZM24.3246 110.129H32.9051V118.71H24.3246V110.129ZM41.4856 110.129H50.0661V118.71H41.4856V110.129ZM50.0661 110.129H58.6465V118.71H50.0661V110.129ZM58.6465 110.129H67.227V118.71H58.6465V110.129ZM75.8075 110.129H84.388V118.71H75.8075V110.129ZM84.388 110.129H92.9685V118.71H84.388V110.129ZM127.29 110.129H135.871V118.71H127.29V110.129ZM153.032 110.129H161.612V118.71H153.032V110.129ZM161.612 110.129H170.193V118.71H161.612V110.129ZM170.193 110.129H178.773V118.71H170.193V110.129ZM187.354 110.129H195.934V118.71H187.354V110.129ZM15.7441 118.71H24.3246V127.29H15.7441V118.71ZM24.3246 118.71H32.9051V127.29H24.3246V118.71ZM32.9051 118.71H41.4856V127.29H32.9051V118.71ZM41.4856 118.71H50.0661V127.29H41.4856V118.71ZM58.6465 118.71H67.227V127.29H58.6465V118.71ZM67.227 118.71H75.8075V127.29H67.227V118.71ZM92.9685 118.71H101.549V127.29H92.9685V118.71ZM101.549 118.71H110.129V127.29H101.549V118.71ZM118.71 118.71H127.29V127.29H118.71V118.71ZM135.871 118.71H144.451V127.29H135.871V118.71ZM144.451 118.71H153.032V127.29H144.451V118.71ZM153.032 118.71H161.612V127.29H153.032V118.71ZM161.612 118.71H170.193V127.29H161.612V118.71ZM170.193 118.71H178.773V127.29H170.193V118.71ZM187.354 118.71H195.934V127.29H187.354V118.71ZM195.934 118.71H204.515V127.29H195.934V118.71ZM213.095 118.71H221.676V127.29H213.095V118.71ZM221.676 118.71H230.256V127.29H221.676V118.71ZM32.9051 127.29H41.4856V135.871H32.9051V127.29ZM41.4856 127.29H50.0661V135.871H41.4856V127.29ZM50.0661 127.29H58.6465V135.871H50.0661V127.29ZM75.8075 127.29H84.388V135.871H75.8075V127.29ZM84.388 127.29H92.9685V135.871H84.388V127.29ZM110.129 127.29H118.71V135.871H110.129V127.29ZM118.71 127.29H127.29V135.871H118.71V127.29ZM135.871 127.29H144.451V135.871H135.871V127.29ZM153.032 127.29H161.612V135.871H153.032V127.29ZM161.612 127.29H170.193V135.871H161.612V127.29ZM178.773 127.29H187.354V135.871H178.773V127.29ZM195.934 127.29H204.515V135.871H195.934V127.29ZM204.515 127.29H213.095V135.871H204.515V127.29ZM221.676 127.29H230.256V135.871H221.676V127.29ZM15.7441 135.871H24.3246V144.451H15.7441V135.871ZM50.0661 135.871H58.6465V144.451H50.0661V135.871ZM58.6465 135.871H67.227V144.451H58.6465V135.871ZM67.227 135.871H75.8075V144.451H67.227V135.871ZM75.8075 135.871H84.388V144.451H75.8075V135.871ZM84.388 135.871H92.9685V144.451H84.388V135.871ZM92.9685 135.871H101.549V144.451H92.9685V135.871ZM101.549 135.871H110.129V144.451H101.549V135.871ZM110.129 135.871H118.71V144.451H110.129V135.871ZM127.29 135.871H135.871V144.451H127.29V135.871ZM135.871 135.871H144.451V144.451H135.871V135.871ZM178.773 135.871H187.354V144.451H178.773V135.871ZM187.354 135.871H195.934V144.451H187.354V135.871ZM204.515 135.871H213.095V144.451H204.515V135.871ZM221.676 135.871H230.256V144.451H221.676V135.871ZM24.3246 144.451H32.9051V153.032H24.3246V144.451ZM50.0661 144.451H58.6465V153.032H50.0661V144.451ZM75.8075 144.451H84.388V153.032H75.8075V144.451ZM92.9685 144.451H101.549V153.032H92.9685V144.451ZM101.549 144.451H110.129V153.032H101.549V144.451ZM110.129 144.451H118.71V153.032H110.129V144.451ZM144.451 144.451H153.032V153.032H144.451V144.451ZM153.032 144.451H161.612V153.032H153.032V144.451ZM170.193 144.451H178.773V153.032H170.193V144.451ZM187.354 144.451H195.934V153.032H187.354V144.451ZM213.095 144.451H221.676V153.032H213.095V144.451ZM15.7441 153.032H24.3246V161.612H15.7441V153.032ZM24.3246 153.032H32.9051V161.612H24.3246V153.032ZM32.9051 153.032H41.4856V161.612H32.9051V153.032ZM41.4856 153.032H50.0661V161.612H41.4856V153.032ZM50.0661 153.032H58.6465V161.612H50.0661V153.032ZM58.6465 153.032H67.227V161.612H58.6465V153.032ZM67.227 153.032H75.8075V161.612H67.227V153.032ZM75.8075 153.032H84.388V161.612H75.8075V153.032ZM110.129 153.032H118.71V161.612H110.129V153.032ZM127.29 153.032H135.871V161.612H127.29V153.032ZM153.032 153.032H161.612V161.612H153.032V153.032ZM161.612 153.032H170.193V161.612H161.612V153.032ZM170.193 153.032H178.773V161.612H170.193V153.032ZM178.773 153.032H187.354V161.612H178.773V153.032ZM187.354 153.032H195.934V161.612H187.354V153.032ZM195.934 153.032H204.515V161.612H195.934V153.032ZM204.515 153.032H213.095V161.612H204.515V153.032ZM84.388 161.612H92.9685V170.193H84.388V161.612ZM92.9685 161.612H101.549V170.193H92.9685V161.612ZM110.129 161.612H118.71V170.193H110.129V161.612ZM118.71 161.612H127.29V170.193H118.71V161.612ZM144.451 161.612H153.032V170.193H144.451V161.612ZM153.032 161.612H161.612V170.193H153.032V161.612ZM187.354 161.612H195.934V170.193H187.354V161.612ZM195.934 161.612H204.515V170.193H195.934V161.612ZM221.676 161.612H230.256V170.193H221.676V161.612ZM15.7441 170.193H24.3246V178.773H15.7441V170.193ZM24.3246 170.193H32.9051V178.773H24.3246V170.193ZM32.9051 170.193H41.4856V178.773H32.9051V170.193ZM41.4856 170.193H50.0661V178.773H41.4856V170.193ZM50.0661 170.193H58.6465V178.773H50.0661V170.193ZM58.6465 170.193H67.227V178.773H58.6465V170.193ZM67.227 170.193H75.8075V178.773H67.227V170.193ZM84.388 170.193H92.9685V178.773H84.388V170.193ZM92.9685 170.193H101.549V178.773H92.9685V170.193ZM110.129 170.193H118.71V178.773H110.129V170.193ZM118.71 170.193H127.29V178.773H118.71V170.193ZM153.032 170.193H161.612V178.773H153.032V170.193ZM170.193 170.193H178.773V178.773H170.193V170.193ZM187.354 170.193H195.934V178.773H187.354V170.193ZM195.934 170.193H204.515V178.773H195.934V170.193ZM213.095 170.193H221.676V178.773H213.095V170.193ZM221.676 170.193H230.256V178.773H221.676V170.193ZM15.7441 178.773H24.3246V187.354H15.7441V178.773ZM67.227 178.773H75.8075V187.354H67.227V178.773ZM84.388 178.773H92.9685V187.354H84.388V178.773ZM92.9685 178.773H101.549V187.354H92.9685V178.773ZM101.549 178.773H110.129V187.354H101.549V178.773ZM110.129 178.773H118.71V187.354H110.129V178.773ZM135.871 178.773H144.451V187.354H135.871V178.773ZM153.032 178.773H161.612V187.354H153.032V178.773ZM187.354 178.773H195.934V187.354H187.354V178.773ZM195.934 178.773H204.515V187.354H195.934V178.773ZM204.515 178.773H213.095V187.354H204.515V178.773ZM213.095 178.773H221.676V187.354H213.095V178.773ZM221.676 178.773H230.256V187.354H221.676V178.773ZM15.7441 187.354H24.3246V195.934H15.7441V187.354ZM32.9051 187.354H41.4856V195.934H32.9051V187.354ZM41.4856 187.354H50.0661V195.934H41.4856V187.354ZM50.0661 187.354H58.6465V195.934H50.0661V187.354ZM67.227 187.354H75.8075V195.934H67.227V187.354ZM92.9685 187.354H101.549V195.934H92.9685V187.354ZM110.129 187.354H118.71V195.934H110.129V187.354ZM118.71 187.354H127.29V195.934H118.71V187.354ZM153.032 187.354H161.612V195.934H153.032V187.354ZM161.612 187.354H170.193V195.934H161.612V187.354ZM170.193 187.354H178.773V195.934H170.193V187.354ZM178.773 187.354H187.354V195.934H178.773V187.354ZM187.354 187.354H195.934V195.934H187.354V187.354ZM195.934 187.354H204.515V195.934H195.934V187.354ZM213.095 187.354H221.676V195.934H213.095V187.354ZM221.676 187.354H230.256V195.934H221.676V187.354ZM15.7441 195.934H24.3246V204.515H15.7441V195.934ZM32.9051 195.934H41.4856V204.515H32.9051V195.934ZM41.4856 195.934H50.0661V204.515H41.4856V195.934ZM50.0661 195.934H58.6465V204.515H50.0661V195.934ZM67.227 195.934H75.8075V204.515H67.227V195.934ZM84.388 195.934H92.9685V204.515H84.388V195.934ZM92.9685 195.934H101.549V204.515H92.9685V195.934ZM127.29 195.934H135.871V204.515H127.29V195.934ZM144.451 195.934H153.032V204.515H144.451V195.934ZM178.773 195.934H187.354V204.515H178.773V195.934ZM187.354 195.934H195.934V204.515H187.354V195.934ZM195.934 195.934H204.515V204.515H195.934V195.934ZM204.515 195.934H213.095V204.515H204.515V195.934ZM15.7441 204.515H24.3246V213.095H15.7441V204.515ZM32.9051 204.515H41.4856V213.095H32.9051V204.515ZM41.4856 204.515H50.0661V213.095H41.4856V204.515ZM50.0661 204.515H58.6465V213.095H50.0661V204.515ZM67.227 204.515H75.8075V213.095H67.227V204.515ZM92.9685 204.515H101.549V213.095H92.9685V204.515ZM101.549 204.515H110.129V213.095H101.549V204.515ZM118.71 204.515H127.29V213.095H118.71V204.515ZM144.451 204.515H153.032V213.095H144.451V204.515ZM153.032 204.515H161.612V213.095H153.032V204.515ZM170.193 204.515H178.773V213.095H170.193V204.515ZM178.773 204.515H187.354V213.095H178.773V204.515ZM187.354 204.515H195.934V213.095H187.354V204.515ZM204.515 204.515H213.095V213.095H204.515V204.515ZM221.676 204.515H230.256V213.095H221.676V204.515ZM15.7441 213.095H24.3246V221.676H15.7441V213.095ZM67.227 213.095H75.8075V221.676H67.227V213.095ZM84.388 213.095H92.9685V221.676H84.388V213.095ZM110.129 213.095H118.71V221.676H110.129V213.095ZM144.451 213.095H153.032V221.676H144.451V213.095ZM161.612 213.095H170.193V221.676H161.612V213.095ZM195.934 213.095H204.515V221.676H195.934V213.095ZM15.7441 221.676H24.3246V230.256H15.7441V221.676ZM24.3246 221.676H32.9051V230.256H24.3246V221.676ZM32.9051 221.676H41.4856V230.256H32.9051V221.676ZM41.4856 221.676H50.0661V230.256H41.4856V221.676ZM50.0661 221.676H58.6465V230.256H50.0661V221.676ZM58.6465 221.676H67.227V230.256H58.6465V221.676ZM67.227 221.676H75.8075V230.256H67.227V221.676ZM92.9685 221.676H101.549V230.256H92.9685V221.676ZM101.549 221.676H110.129V230.256H101.549V221.676ZM127.29 221.676H135.871V230.256H127.29V221.676ZM135.871 221.676H144.451V230.256H135.871V221.676ZM144.451 221.676H153.032V230.256H144.451V221.676ZM153.032 221.676H161.612V230.256H153.032V221.676ZM161.612 221.676H170.193V230.256H161.612V221.676ZM178.773 221.676H187.354V230.256H178.773V221.676ZM213.095 221.676H221.676V230.256H213.095V221.676ZM221.676 221.676H230.256V230.256H221.676V221.676Z" fill="black"/>
</svg>
