<svg width="36" height="36" viewBox="0 0 36 36" fill="none" xmlns="http://www.w3.org/2000/svg">
<path d="M10.35 30.9C12.6 32.25 15.3 33 18 33C26.25 33 33 26.25 33 18C33 9.75 26.25 3 18 3C9.75 3 3 9.75 3 18C3 20.7 3.75 23.25 4.95 25.5L3.44044 31.306C3.24572 32.0549 3.93892 32.7317 4.68299 32.5191L10.35 30.9Z" stroke="#3A3A3A" stroke-width="1.5" stroke-miterlimit="10" stroke-linecap="round" stroke-linejoin="round"/>
<path d="M24.75 22.2728C24.75 22.5158 24.6959 22.7655 24.581 23.0085C24.4661 23.2515 24.3174 23.481 24.1213 23.697C23.7901 24.0615 23.425 24.3248 23.0126 24.4935C22.607 24.6623 22.1676 24.75 21.6944 24.75C21.0049 24.75 20.268 24.588 19.4906 24.2573C18.7132 23.9265 17.9358 23.481 17.1651 22.9208C16.3877 22.3538 15.6509 21.726 14.9478 21.0308C14.2515 20.3288 13.6228 19.593 13.0617 18.8235C12.5074 18.054 12.0612 17.2845 11.7367 16.5218C11.4122 15.7523 11.25 15.0165 11.25 14.3145C11.25 13.8555 11.3311 13.4168 11.4934 13.0118C11.6556 12.6 11.9125 12.222 12.2708 11.8845C12.7034 11.4593 13.1766 11.25 13.6769 11.25C13.8662 11.25 14.0555 11.2905 14.2245 11.3715C14.4002 11.4525 14.5557 11.574 14.6774 11.7495L16.2457 13.9568C16.3674 14.1255 16.4553 14.2808 16.5161 14.4293C16.577 14.571 16.6108 14.7128 16.6108 14.841C16.6108 15.003 16.5635 15.165 16.4688 15.3202C16.3809 15.4755 16.2525 15.6375 16.0903 15.7995L15.5765 16.3327C15.5021 16.407 15.4683 16.4948 15.4683 16.6028C15.4683 16.6568 15.4751 16.704 15.4886 16.758C15.5089 16.812 15.5292 16.8525 15.5427 16.893C15.6644 17.1157 15.8739 17.406 16.1714 17.757C16.4756 18.108 16.8001 18.4658 17.1516 18.8235C17.5167 19.1813 17.8682 19.512 18.2265 19.8157C18.578 20.1127 18.8687 20.3152 19.0985 20.4367C19.1323 20.4502 19.1729 20.4705 19.2202 20.4907C19.2743 20.511 19.3284 20.5177 19.3892 20.5177C19.5041 20.5177 19.592 20.4773 19.6664 20.403L20.1801 19.8968C20.3491 19.728 20.5114 19.5998 20.6669 19.5188C20.8224 19.4243 20.9778 19.377 21.1468 19.377C21.2753 19.377 21.4105 19.404 21.5592 19.4648C21.7079 19.5255 21.8634 19.6133 22.0324 19.728L24.27 21.3143C24.4458 21.4358 24.5675 21.5775 24.6418 21.7462C24.7094 21.915 24.75 22.0838 24.75 22.2728Z" stroke="#3A3A3A" stroke-width="1.5" stroke-miterlimit="10"/>
</svg>
